# xmcd
#
# Track frame offsets:
#	150
#	16387
#	35197
#	56287
#	80285
#	98947
#	116672
#	131262
#	142237
#	162150
#	183022
#	195685
#	216412
#	236947
#	253812
#
# Disc length: 3615 seconds
#
# Revision: 0
# Processed by: cddbd v1.5.1PL0 Copyright (c) Steve Scherf et al.
# Submitted via: audiograbber 1.80
#
DISCID=d80e1d0f
DTITLE=Bluesaholics - X [CD 1) Best Of 10 Years
DYEAR=2002
DGENRE=Blues
TTITLE0=Again and Again
TTITLE1=Pissoir
TTITLE2=Strange Pictures
TTITLE3=Place In Your Heart
TTITLE4=Leos Beiz
TTITLE5=Träne I Mim Härz
TTITLE6=Give Your Love
TTITLE7=Oh Jeh Minee
TTITLE8=I'm Still Here
TTITLE9=Foggy Morning
TTITLE10=Fool Moon Boogie
TTITLE11=Lass Mi Nid Elei
TTITLE12=Storm
TTITLE13=Go Your Way
TTITLE14=Gib Nid Uuf
EXTD=best swiss blues band
EXTT0=
EXTT1=
EXTT2=
EXTT3=
EXTT4=
EXTT5=
EXTT6=
EXTT7=
EXTT8=
EXTT9=
EXTT10=
EXTT11=
EXTT12=
EXTT13=
EXTT14=
PLAYORDER=
